<?xml version="1.0" encoding="utf-8"?>
<!-- Generator: Adobe Illustrator 24.0.2, SVG Export Plug-In . SVG Version: 6.00 Build 0)  -->
<svg version="1.1" id="Capa_1" xmlns="http://www.w3.org/2000/svg" xmlns:xlink="http://www.w3.org/1999/xlink" x="0px" y="0px"
	 viewBox="0 0 229.9 265.1" style="enable-background:new 0 0 229.9 265.1;" xml:space="preserve">
<style type="text/css">
	.st0{fill:#650F80;}
</style>
<path class="st0" d="M137.7,32.1c12.6,0,22.8,10.5,22.8,23.3c0,12.9-10.2,23.3-22.8,23.3s-22.8-10.5-22.8-23.3
	C114.8,42.6,125.1,32.1,137.7,32.1 M95.4,55.5c0,23.6,19,42.8,42.3,42.8S180,79.1,180,55.5s-19-42.8-42.3-42.8
	C114.4,12.7,95.4,31.9,95.4,55.5"/>
<path class="st0" d="M106,176.1c3.2,0,5.8,2.6,5.8,5.8v9.7H36v-9.7c0-3.2,2.6-5.8,5.8-5.8h25.3v0.1h19.4v-0.1H106z M106,226.6H41.8
	c-3.2,0-5.8-2.6-5.8-5.8v-9.7h75.9v9.7C111.8,224,109.2,226.6,106,226.6 M172.1,113.8H106c-21.5,0-38.9,17.4-38.9,38.9v3.9H28.2
	c-6.4,0-11.7,5.2-11.7,11.7v66.1c0,6.4,5.2,11.7,11.7,11.7h91.4c6.4,0,11.7-5.2,11.7-11.7v-66.1c0-6.4-5.2-11.7-11.7-11.7H86.5v-3.9
	c0-10.8,8.7-19.5,19.5-19.5h66.1c10.7,0,19.4,8.7,19.4,19.5v87.5c0,3.2,2.6,5.8,5.8,5.8h7.8c3.2,0,5.8-2.6,5.8-5.8v-87.5
	C211,131.2,193.6,113.8,172.1,113.8"/>
<path class="st0" d="M166.3,148.8c-5.4,0-9.7,4.4-9.7,9.7s4.4,9.7,9.7,9.7c5.4,0,9.7-4.4,9.7-9.7S171.6,148.8,166.3,148.8"/>
</svg>
