<?xml version="1.0" encoding="utf-8"?>
<!-- Generator: Adobe Illustrator 24.0.2, SVG Export Plug-In . SVG Version: 6.00 Build 0)  -->
<svg version="1.1" id="Capa_1" xmlns="http://www.w3.org/2000/svg" xmlns:xlink="http://www.w3.org/1999/xlink" x="0px" y="0px"
	 viewBox="0 0 229.9 265.1" style="enable-background:new 0 0 229.9 265.1;" xml:space="preserve">
<style type="text/css">
	.st0{fill:#650F80;}
</style>
<path class="st0" d="M166.3,148.8c-5.4,0-9.7,4.4-9.7,9.7s4.4,9.7,9.7,9.7c5.4,0,9.7-4.4,9.7-9.7S171.6,148.8,166.3,148.8"/>
<path class="st0" d="M163.1,227c0,1-0.8,1.8-1.8,1.8h-132c-1,0-1.8-0.8-1.8-1.8V61.1c0-1.3,1.3-2.1,2.5-1.6L50.3,68
	c1.3,0.6,2.2,1.9,2.2,3.3v80.8c0,3,2.4,5.4,5.4,5.4h94.5c5.9,0,10.7,4.8,10.7,10.7V227z M181,161c0-11.8-9.6-21.4-21.4-21.4H70.4
	V61.7c0-2.9-1.7-5.5-4.4-6.6L19.6,35.8c-4.7-2-9.9,1.5-9.9,6.6v198.9c0,3,2.4,5.4,5.4,5.4h158.7c3.9,0,7.1-3.2,7.1-7.1L181,161
	L181,161z"/>
<path class="st0" d="M90,125.3h7.1c3,0,5.4-2.4,5.4-5.4V61.1c0-1.3,1.3-2.1,2.5-1.6l20.3,8.5c1.3,0.6,2.2,1.9,2.2,3.3V120
	c0,3,2.4,5.4,5.4,5.4h7.1c3,0,5.4-2.4,5.4-5.4V61.7c0-2.9-1.7-5.5-4.4-6.6L94.6,35.8c-4.7-2-9.9,1.5-9.9,6.6V120
	C84.7,122.9,87.1,125.3,90,125.3"/>
<path class="st0" d="M168.5,125.3h7.1c3,0,5.4-2.4,5.4-5.4V61.1c0-1.3,1.3-2.1,2.5-1.6l20.3,8.5c1.3,0.6,2.2,1.9,2.2,3.3v170
	c0,3,2.4,5.4,5.4,5.4h7.1c3,0,5.3-2.4,5.3-5.4V61.7c0-2.9-1.7-5.5-4.4-6.6L173,35.8c-4.7-2-9.9,1.5-9.9,6.6V120
	C163.1,122.9,165.5,125.3,168.5,125.3"/>
<path class="st0" d="M61.5,171.7c-4.9,0-8.9,4-8.9,8.9s4,8.9,8.9,8.9s8.9-4,8.9-8.9S66.4,171.7,61.5,171.7"/>
<path class="st0" d="M93.6,171.7c-4.9,0-8.9,4-8.9,8.9s4,8.9,8.9,8.9s8.9-4,8.9-8.9S98.5,171.7,93.6,171.7"/>
<path class="st0" d="M125.7,171.7c-4.9,0-8.9,4-8.9,8.9s4,8.9,8.9,8.9c4.9,0,8.9-4,8.9-8.9C134.6,175.7,130.6,171.7,125.7,171.7"/>
</svg>
