<?xml version="1.0" encoding="utf-8"?>
<!-- Generator: Adobe Illustrator 24.0.2, SVG Export Plug-In . SVG Version: 6.00 Build 0)  -->
<svg version="1.1" id="Capa_1" xmlns="http://www.w3.org/2000/svg" xmlns:xlink="http://www.w3.org/1999/xlink" x="0px" y="0px"
	 viewBox="0 0 229.9 265.1" style="enable-background:new 0 0 229.9 265.1;" xml:space="preserve">
<style type="text/css">
	.st0{fill:#650F80;}
</style>
<path class="st0" d="M183.4,219c0,6.5-5.3,11.7-11.7,11.7H58.3c-6.5,0-11.7-5.3-11.7-11.7V46.9c0-6.5,5.3-11.7,11.7-11.7h113.4
	c6.5,0,11.7,5.3,11.7,11.7V219z M179.5,15.7h-129c-13,0-23.5,10.5-23.5,23.5v187.7c0,13,10.5,23.5,23.5,23.5h129.1
	c13,0,23.5-10.5,23.5-23.5V39.1C203,26.2,192.5,15.7,179.5,15.7"/>
<path class="st0" d="M79.8,90H68.1c-3.2,0-5.9,2.6-5.9,5.9v7.8c0,3.2,2.6,5.9,5.9,5.9h11.7c3.2,0,5.9-2.6,5.9-5.9v-7.8
	C85.7,92.6,83,90,79.8,90"/>
<path class="st0" d="M118.9,90h-11.7c-3.2,0-5.9,2.6-5.9,5.9v7.8c0,3.2,2.6,5.9,5.9,5.9h11.7c3.2,0,5.9-2.6,5.9-5.9v-7.8
	C124.8,92.6,122.2,90,118.9,90"/>
<path class="st0" d="M158,90h-11.7c-3.2,0-5.9,2.6-5.9,5.9v7.8c0,3.2,2.6,5.9,5.9,5.9H158c3.2,0,5.9-2.6,5.9-5.9v-7.8
	C163.9,92.6,161.3,90,158,90"/>
<path class="st0" d="M79.8,125.2H68.1c-3.2,0-5.9,2.6-5.9,5.9v7.8c0,3.2,2.6,5.9,5.9,5.9h11.7c3.2,0,5.9-2.6,5.9-5.9V131
	C85.7,127.8,83,125.2,79.8,125.2"/>
<path class="st0" d="M118.9,125.2h-11.7c-3.2,0-5.9,2.6-5.9,5.9v7.8c0,3.2,2.6,5.9,5.9,5.9h11.7c3.2,0,5.9-2.6,5.9-5.9V131
	C124.8,127.8,122.2,125.2,118.9,125.2"/>
<path class="st0" d="M158,125.2h-11.7c-3.2,0-5.9,2.6-5.9,5.9v7.8c0,3.2,2.6,5.9,5.9,5.9H158c3.2,0,5.9-2.6,5.9-5.9V131
	C163.9,127.8,161.3,125.2,158,125.2"/>
<path class="st0" d="M79.8,160.4H68.1c-3.2,0-5.9,2.6-5.9,5.9v7.8c0,3.2,2.6,5.9,5.9,5.9h11.7c3.2,0,5.9-2.6,5.9-5.9v-7.8
	C85.7,163,83,160.4,79.8,160.4"/>
<path class="st0" d="M118.9,160.4h-11.7c-3.2,0-5.9,2.6-5.9,5.9v7.8c0,3.2,2.6,5.9,5.9,5.9h11.7c3.2,0,5.9-2.6,5.9-5.9v-7.8
	C124.8,163,122.2,160.4,118.9,160.4"/>
<path class="st0" d="M79.8,195.6H68.1c-3.2,0-5.9,2.6-5.9,5.9v7.8c0,3.2,2.6,5.9,5.9,5.9h11.7c3.2,0,5.9-2.6,5.9-5.9v-7.8
	C85.7,198.2,83,195.6,79.8,195.6"/>
<path class="st0" d="M118.9,195.6h-11.7c-3.2,0-5.9,2.6-5.9,5.9v7.8c0,3.2,2.6,5.9,5.9,5.9h11.7c3.2,0,5.9-2.6,5.9-5.9v-7.8
	C124.8,198.2,122.2,195.6,118.9,195.6"/>
<path class="st0" d="M158,160.4h-11.7c-3.2,0-5.9,2.6-5.9,5.9v43c0,3.2,2.6,5.9,5.9,5.9H158c3.2,0,5.9-2.6,5.9-5.9v-43
	C163.9,163,161.3,160.4,158,160.4"/>
<path class="st0" d="M158,50.9H68c-3.2,0-5.9,2.6-5.9,5.9v11.7c0,3.2,2.6,5.9,5.9,5.9h90c3.2,0,5.9-2.6,5.9-5.9V56.7
	C163.9,53.5,161.3,50.9,158,50.9"/>
</svg>
