<?xml version="1.0" encoding="utf-8"?>
<!-- Generator: Adobe Illustrator 24.0.2, SVG Export Plug-In . SVG Version: 6.00 Build 0)  -->
<svg version="1.1" id="Capa_1" xmlns="http://www.w3.org/2000/svg" xmlns:xlink="http://www.w3.org/1999/xlink" x="0px" y="0px"
	 viewBox="0 0 229.9 265.1" style="enable-background:new 0 0 229.9 265.1;" xml:space="preserve">
<style type="text/css">
	.st0{fill:#EE0032;}
</style>
<path class="st0" d="M104.5,230.3v-34.4c0-3.4,2.3-6.5,5.8-8.8c3.3-2.1,7.6-3.4,12.4-3.4c1.7,0,3.5,0.3,5.2,0.7
	c6.4,1.6,12.7,6,18.6,11.8c4.5,4.4,8.8,9.7,12.6,15.1c4.6,6.4,8.6,13.1,11.8,18.9h-66.4V230.3z M128.7,92.3L141.5,76
	c22,11.7,37.1,34.9,37.1,61.6c0,17.5-6.6,33.5-17.3,45.8c-4.5-4.5-9.4-8.6-14.6-11.8c8.1-8.8,13.1-20.5,13.1-33.4
	C159.8,117.4,146.9,99.6,128.7,92.3 M93.7,105.1c-1.3,1.7-3.8,2-5.5,0.6l-12.1-9.5c-1.7-1.3-2-3.8-0.6-5.5l33.4-42.3l3.8-4.9
	c1.3-1.7,3.8-2,5.5-0.6l9.4,7.4l2.7,2.1c1.7,1.3,2,3.8,0.6,5.5L93.7,105.1z M204.4,230.3h-11.6c-3.4-7.2-9.9-19.7-18.8-31.8
	c14.9-15.9,24.1-37.4,24.1-60.9c0-32.8-17.9-61.6-44.4-77.1l2.1-2.7c2.7-3.4,2.1-8.3-1.3-11L118,17.9c-3.4-2.7-8.3-2.1-11,1.3
	L50.5,90.9c-2.7,3.4-2.1,8.3,1.3,11l10.3,8.1l-5.7,7.2c-2,2.5-1.6,6.2,1,8.2l9.2,7.2c2.5,2,6.2,1.6,8.2-1l5.7-7.2l7.9,6.3
	c3.4,2.7,8.3,2.1,11-1.3l16.3-20.7c13.9,2.6,24.5,14.8,24.5,29.5c0,11.2-6.2,21-15.3,26.1c-0.8-0.1-1.5-0.1-2.3-0.1
	c-12.9,0-24.2,5.5-31,13.7l-57.4-46c-2.5-2-6.2-1.6-8.2,0.9l-4.9,6.1c-2,2.5-1.6,6.2,0.9,8.2l62.9,50.4v32.7H71.5
	c-3.2,0-5.9,2.6-5.9,5.9v7.8c0,3.2,2.6,5.9,5.9,5.9h132.8c3.2,0,5.9-2.6,5.9-5.9v-7.8C210.3,232.9,207.6,230.3,204.4,230.3"/>
</svg>
