<?xml version="1.0" encoding="utf-8"?>
<!-- Generator: Adobe Illustrator 24.0.2, SVG Export Plug-In . SVG Version: 6.00 Build 0)  -->
<svg version="1.1" id="Capa_1" xmlns="http://www.w3.org/2000/svg" xmlns:xlink="http://www.w3.org/1999/xlink" x="0px" y="0px"
	 viewBox="0 0 229.9 265.1" style="enable-background:new 0 0 229.9 265.1;" xml:space="preserve">
<style type="text/css">
	.st0{fill:#8AB117;}
</style>
<path class="st0" d="M202.1,122.5h-19.2c-4.8,0-8.7-3.9-8.7-8.7V94.7h10.4c9.6,0,17.4,7.8,17.4,17.4v10.4H202.1z M170.7,192.2
	c-5.8,0-10.4-4.7-10.4-10.4s4.7-10.4,10.4-10.4c5.8,0,10.4,4.7,10.4,10.4S176.5,192.2,170.7,192.2 M59.3,192.2
	c-5.8,0-10.4-4.7-10.4-10.4s4.7-10.4,10.4-10.4c5.8,0,10.4,4.7,10.4,10.4S65,192.2,59.3,192.2 M184.6,77.3h-20.9c-3.8,0-7,3.1-7,7
	v29.6c0,14.4,11.7,26.1,26.1,26.1H202v24.4h-9.6c-5.1-6.4-12.9-10.4-21.7-10.4s-16.6,4.1-21.7,10.4h-6.1h-17.4H81
	C75.9,158,68.1,154,59.3,154s-16.6,4.1-21.7,10.4H28V80c0-3.8,3.1-7,7-7h83.6c3.8,0,7,3.1,7,7v35.6c0,3.8-3.1,7-7,7H48.8
	c-1.9,0-3.5,1.6-3.5,3.5v10.4c0,1.9,1.6,3.5,3.5,3.5h80.1c7.7,0,13.9-6.2,13.9-13.9V80.7c0-13.4-10.9-24.3-24.4-24.3H34.9
	c-13.5,0-24.4,10.9-24.4,24.4v94c0,3.8,3.1,7,7,7h13.9c0,15.4,12.5,27.9,27.9,27.9s27.9-12.5,27.9-27.9h38.3h17.4
	c0,15.4,12.5,27.9,27.9,27.9s27.9-12.5,27.9-27.9h20.9v-69.6C219.5,92.9,203.9,77.3,184.6,77.3"/>
</svg>
