<?xml version="1.0" encoding="utf-8"?>
<!-- Generator: Adobe Illustrator 24.0.2, SVG Export Plug-In . SVG Version: 6.00 Build 0)  -->
<svg version="1.1" id="Capa_1" xmlns="http://www.w3.org/2000/svg" xmlns:xlink="http://www.w3.org/1999/xlink" x="0px" y="0px"
	 viewBox="0 0 229.9 265.1" style="enable-background:new 0 0 229.9 265.1;" xml:space="preserve">
<style type="text/css">
	.st0{fill:#FF6700;}
</style>
<path class="st0" d="M165.5,216.6c-7.7,0-13.9-6.3-13.9-13.9c0-7.7,6.3-13.9,13.9-13.9c7.7,0,13.9,6.2,13.9,13.9
	C179.4,210.3,173.2,216.6,165.5,216.6 M62.8,216.6C43.6,216.6,28,201,28,181.8S43.6,147,62.8,147s34.8,15.6,34.8,34.8
	S82,216.6,62.8,216.6 M196.1,115.9l-18.4-2.3V59.9c0-3.8-3.1-7-7-7h-3.5c-3.8,0-7,3.1-7,7v51.7L51.5,98.2c-3.5-0.4-6.1-3.4-6.1-6.9
	V56.4c0-3.8,3.1-7,7-7h38.4c4.1,0,7.6,2.8,8.5,6.7l5.8,26.6c0.8,3.8,4.6,6.2,8.4,5.3l3.4-0.8c3.7-0.9,6-4.5,5.2-8.3l-5.9-26.8
	C113.4,40.3,102.9,32,90.7,32H41.9C34.2,32,28,38.2,28,45.9v54.6c0,7,5.3,13,12.2,13.8l154,18.8c4.5,0.4,7.9,4.2,7.9,8.7v43.4h-10.5
	c-5.6-8.4-15.2-13.9-26.1-13.9s-20.4,5.5-26,13.9h-24.8c0.1-1.2,0.4-2.3,0.4-3.5c0-28.8-23.4-52.2-52.2-52.2s-52.2,23.4-52.2,52.2
	S33.9,234,62.8,234c21.4,0,39.8-12.9,47.8-31.3h23.6c0,17.3,14,31.3,31.3,31.3s31.3-14,31.3-31.3h22.6v-60.8
	C219.5,128.4,209.3,117.2,196.1,115.9"/>
</svg>
